Coordinates
version=1
nRows=34
nColumns=34
inDegrees=no

Units are S.I. units (second, meters, Newtons, ...)
If the header above contains a line with 'inDegrees', this indicates whether rotational values are in degrees (yes) or radians (no).

endheader
time	pelvis_tilt	pelvis_list	pelvis_rotation	pelvis_tx	pelvis_ty	pelvis_tz	hip_flexion_r	hip_adduction_r	hip_rotation_r	knee_angle_r	ankle_angle_r	subtalar_angle_r	mtp_angle_r	hip_flexion_l	hip_adduction_l	hip_rotation_l	knee_angle_l	ankle_angle_l	subtalar_angle_l	mtp_angle_l	lumbar_extension	lumbar_bending	lumbar_rotation	arm_flex_r	arm_add_r	arm_rot_r	elbow_flex_r	pro_sup_r	arm_flex_l	arm_add_l	arm_rot_l	elbow_flex_l	pro_sup_l
2.26	-0.215397	-0.0139776	-0.000981939	-0.0882437	1.20841	-0.623499	0.271347	-0.190332	-0.440471	0.193413	-0.756581	0.00266367	-0.128165	0.248055	-0.0969811	-0.466762	0.0956404	-0.740752	0.0630821	-0.130033	0.0957801	0.0207767	0.0549929	2.6875	-0.205271	1.0421	0.677384	1.56517	2.61549	-0.135051	1.04593	0.797121	1.7097
2.27	-0.208447	-0.013484	0.00792669	-0.0873843	1.21839	-0.624452	0.260211	-0.194298	-0.444304	0.198868	-0.75154	0.00390999	-0.128162	0.240809	-0.0957891	-0.465936	0.101694	-0.734935	0.0610454	-0.130046	0.0913521	0.0156971	0.0445969	2.6886	-0.217258	1.04506	0.708471	1.56957	2.60743	-0.137683	1.02739	0.81078	1.72111
2.28	-0.201773	-0.0140458	0.0174883	-0.0866554	1.22739	-0.625402	0.248169	-0.196318	-0.453802	0.200144	-0.746898	0.0104793	-0.128159	0.233768	-0.0954772	-0.465062	0.104172	-0.729447	0.0614357	-0.130059	0.0866393	0.0116041	0.0334062	2.68983	-0.228604	1.04952	0.737286	1.57368	2.60251	-0.140106	1.01806	0.821973	1.73125
2.29	-0.195487	-0.0155934	0.027162	-0.0860534	1.23538	-0.626319	0.235975	-0.19656	-0.467525	0.198499	-0.742821	0.0193262	-0.128155	0.227323	-0.0962652	-0.463968	0.104274	-0.724507	0.0620946	-0.130073	0.0817487	0.008587	0.0216844	2.69133	-0.239086	1.05512	0.763672	1.5776	2.60138	-0.143103	1.01897	0.831885	1.73805
2.3	-0.189677	-0.0179174	0.0363452	-0.0855898	1.24233	-0.627156	0.224419	-0.195375	-0.483037	0.195467	-0.739393	0.0274754	-0.128152	0.221787	-0.0981987	-0.46221	0.103354	-0.720315	0.0610642	-0.130086	0.0767472	0.00659174	0.00989076	2.69322	-0.248578	1.06154	0.787669	1.58151	2.60417	-0.147346	1.0298	0.841942	1.73977
2.31	-0.184433	-0.0207347	0.0444634	-0.0852716	1.24823	-0.627886	0.21426	-0.193207	-0.497576	0.192494	-0.736619	0.032719	-0.128149	0.2174	-0.101155	-0.459388	0.102559	-0.716983	0.0571949	-0.1301	0.0717842	0.00544452	-0.0013504	2.69555	-0.257086	1.06851	0.809514	1.58557	2.61036	-0.153233	1.04884	0.853538	1.73529
2.32	-0.179903	-0.0237419	0.05106	-0.0850787	1.25306	-0.628494	0.206151	-0.190489	-0.508718	0.190651	-0.73444	0.0339985	-0.128146	0.214342	-0.104884	-0.455335	0.102603	-0.714487	0.050423	-0.130113	0.0671429	0.00489473	-0.011321	2.69824	-0.264787	1.07568	0.829646	1.58992	2.61881	-0.160791	1.07316	0.867759	1.7245
2.33	-0.176297	-0.0266719	0.0558579	-0.0849941	1.25682	-0.62897	0.200579	-0.187583	-0.514919	0.190489	-0.732761	0.0314528	-0.128142	0.212755	-0.109064	-0.450161	0.1037	-0.712678	0.0416745	-0.130126	0.0632407	0.00465198	-0.0193253	2.70097	-0.272018	1.08263	0.848705	1.59463	2.62795	-0.169676	1.09903	0.885192	1.70838
2.34	-0.17386	-0.0293309	0.0587834	-0.084996	1.2595	-0.62932	0.197811	-0.184746	-0.515804	0.192043	-0.731466	0.0261669	-0.128139	0.212736	-0.113368	-0.44417	0.105646	-0.711325	0.0324692	-0.13014	0.0605575	0.00442085	-0.0248215	2.70326	-0.279239	1.08878	0.867501	1.5997	2.636	-0.179268	1.12256	0.90586	1.68907
2.35	-0.172806	-0.0316021	0.0599527	-0.0850536	1.26109	-0.629554	0.19787	-0.182125	-0.512135	0.194953	-0.730425	0.019738	-0.128136	0.214319	-0.117522	-0.437748	0.107983	-0.710185	0.0243876	-0.130153	0.059523	0.00394098	-0.0275298	2.70442	-0.286957	1.09338	0.886961	1.60511	2.64131	-0.188845	1.14032	0.929322	1.66935
2.36	-0.173226	-0.0334439	0.0596234	-0.0851446	1.26162	-0.62968	0.200522	-0.179774	-0.505491	0.198644	-0.729507	0.0138036	-0.128133	0.217435	-0.121347	-0.431275	0.110195	-0.709052	0.0185895	-0.130167	0.0604058	0.00301884	-0.0274869	2.70367	-0.295641	1.09553	0.908056	1.61084	2.64267	-0.197769	1.15002	0.954891	1.65176
2.37	-0.175032	-0.0348763	0.0581282	-0.0852597	1.2611	-0.629714	0.205296	-0.177671	-0.497823	0.202521	-0.728573	0.00967717	-0.12813	0.221871	-0.124783	-0.425072	0.111877	-0.707779	0.0155351	-0.13018	0.0632064	0.00154949	-0.0250322	2.70019	-0.305648	1.09417	0.931734	1.61689	2.6394	-0.205639	1.15074	0.981864	1.63814
2.38	-0.177929	-0.0359555	0.0558191	-0.0853949	1.25953	-0.629682	0.211533	-0.175758	-0.491	0.206125	-0.727478	0.00813095	-0.128127	0.22726	-0.127884	-0.419375	0.112829	-0.706262	0.0149494	-0.130194	0.0676135	-0.000474094	-0.0207429	2.6932	-0.317169	1.08826	0.95883	1.6233	2.6315	-0.212372	1.14293	1.0097	1.62934
2.39	-0.181427	-0.0367625	0.0530325	-0.0855511	1.25696	-0.629604	0.218464	-0.17396	-0.486434	0.209214	-0.726087	0.0093228	-0.128123	0.233118	-0.130781	-0.414296	0.113083	-0.704412	0.0159923	-0.130207	0.0730412	-0.00297931	-0.0153434	2.68209	-0.330217	1.07691	0.989986	1.63004	2.61951	-0.218213	1.12824	1.03812	1.62534
2.4	-0.184926	-0.0373928	0.050075	-0.0857338	1.25344	-0.629491	0.225304	-0.172207	-0.48484	0.211758	-0.724294	0.0128511	-0.12812	0.238916	-0.133631	-0.409785	0.112848	-0.702145	0.0175563	-0.130221	0.0787233	-0.00584303	-0.00961126	2.6665	-0.344631	1.05957	1.02557	1.63698	2.6044	-0.223679	1.10902	1.06714	1.62533
2.41	-0.187828	-0.0379471	0.0472215	-0.0859516	1.24902	-0.629358	0.231351	-0.170443	-0.486189	0.213897	-0.722037	0.0179157	-0.128117	0.244159	-0.136572	-0.405616	0.112427	-0.699396	0.0185963	-0.130234	0.0838424	-0.00892148	-0.00428452	2.64629	-0.36012	1.03611	1.06563	1.64381	2.58733	-0.229455	1.0879	1.09706	1.62799
2.42	-0.189625	-0.0385242	0.0447152	-0.0862129	1.24375	-0.629224	0.236067	-0.168622	-0.489828	0.215863	-0.719308	0.023539	-0.128114	0.248465	-0.139695	-0.401405	0.112109	-0.696174	0.0183956	-0.130248	0.0876671	-0.0120715	1.74575e-05	2.62162	-0.376314	1.00695	1.10988	1.65004	2.56942	-0.236272	1.06729	1.12835	1.63179
2.43	-0.189965	-0.0392158	0.0427662	-0.0865228	1.23764	-0.629113	0.239119	-0.166713	-0.49475	0.217904	-0.716168	0.0287913	-0.128111	0.251609	-0.143035	-0.396679	0.112099	-0.692624	0.0167039	-0.130261	0.0896582	-0.0151598	0.00285313	2.59284	-0.392828	0.972922	1.15778	1.65532	2.55158	-0.244791	1.04901	1.16155	1.6354
2.44	-0.188687	-0.0401068	0.04154	-0.0868789	1.2307	-0.629048	0.240387	-0.164691	-0.499899	0.220225	-0.71276	0.0329669	-0.128107	0.253532	-0.146585	-0.390966	0.11249	-0.689088	0.0137281	-0.130275	0.0895202	-0.0180623	0.00398691	2.56044	-0.409303	0.935182	1.20854	1.65945	2.53434	-0.255527	1.03411	1.19715	1.63792
2.45	-0.185812	-0.0412641	0.0411429	-0.0872829	1.22294	-0.62904	0.239927	-0.162535	-0.504428	0.222942	-0.709325	0.0356978	-0.128104	0.254317	-0.150313	-0.383897	0.113285	-0.686116	0.0100074	-0.130288	0.0872029	-0.0206567	0.00338861	2.52491	-0.425435	0.894999	1.2613	1.66247	2.51784	-0.26882	1.02282	1.23554	1.63891
2.46	-0.181494	-0.0427311	0.0416048	-0.0877439	1.21435	-0.629102	0.23792	-0.160231	-0.507849	0.226074	-0.706186	0.0369979	-0.128101	0.254161	-0.154194	-0.375282	0.114465	-0.684411	0.00622107	-0.130302	0.082865	-0.0228223	0.00121027	2.48669	-0.440979	0.853553	1.31519	1.66456	2.50188	-0.284829	1.01473	1.27693	1.63832
2.47	-0.175968	-0.0445275	0.0428716	-0.0882705	1.2049	-0.629244	0.234622	-0.157781	-0.510037	0.229561	-0.703698	0.0372345	-0.128098	0.253327	-0.158211	-0.365135	0.116073	-0.684697	0.00297744	-0.130315	0.0768108	-0.0244512	-0.00226332	2.44607	-0.455742	0.81177	1.36944	1.66595	2.48598	-0.30356	1.009	1.32134	1.63628
2.48	-0.169497	-0.0466455	0.0448143	-0.088855	1.19457	-0.629471	0.230316	-0.155211	-0.511117	0.23331	-0.702143	0.0370105	-0.128095	0.252111	-0.162362	-0.35364	0.118295	-0.687501	0.000638287	-0.130329	0.0694197	-0.0254565	-0.00667872	2.4032	-0.469563	0.770244	1.42346	1.6669	2.46956	-0.324908	1.00462	1.36862	1.6329
2.49	-0.162342	-0.0490496	0.0472499	-0.0894755	1.18335	-0.629776	0.225309	-0.152582	-0.511293	0.237292	-0.701573	0.0369799	-0.128092	0.250822	-0.166636	-0.341063	0.121527	-0.692872	-0.000785198	-0.130342	0.0610929	-0.0257805	-0.0116783	2.3581	-0.482287	0.72925	1.47678	1.66758	2.45199	-0.348709	1.00064	1.41847	1.62818
2.5	-0.15475	-0.0516793	0.0499663	-0.0901179	1.17122	-0.630155	0.219943	-0.15	-0.510658	0.24166	-0.701614	0.0376462	-0.128088	0.249786	-0.170998	-0.327655	0.126418	-0.70007	-0.00164637	-0.130356	0.0522249	-0.025396	-0.0169486	2.31074	-0.493743	0.688839	1.52907	1.6681	2.43274	-0.374792	0.996263	1.47048	1.62215
2.51	-0.14696	-0.0544539	0.0527475	-0.0907808	1.15813	-0.630612	0.214652	-0.147616	-0.509059	0.246884	-0.701256	0.0391921	-0.128085	0.249362	-0.17537	-0.31355	0.133897	-0.707293	-0.00260128	-0.13037	0.0431965	-0.0243003	-0.0222489	2.2611	-0.503734	0.648964	1.58004	1.66843	2.41134	-0.403028	0.990933	1.52419	1.6147
2.52	-0.139231	-0.057282	0.0553929	-0.0914533	1.14409	-0.631154	0.210012	-0.145616	-0.506032	0.253852	-0.69867	0.0413825	-0.128082	0.249997	-0.179625	-0.298725	0.145172	-0.711517	-0.00448616	-0.130383	0.034385	-0.0225039	-0.0274084	2.20925	-0.512067	0.609611	1.62942	1.66848	2.38739	-0.433332	0.984252	1.57912	1.60582
2.53	-0.131883	-0.060074	0.0577292	-0.0921294	1.12907	-0.631786	0.206788	-0.144191	-0.500812	0.263901	-0.691111	0.0435587	-0.128079	0.252264	-0.183603	-0.283014	0.161684	-0.708539	-0.00818193	-0.130397	0.0261951	-0.0200222	-0.032306	2.15539	-0.518587	0.570887	1.677	1.66809	2.36047	-0.465647	0.975896	1.63483	1.59553
2.54	-0.125316	-0.0627455	0.0596148	-0.0928124	1.11302	-0.632512	0.20594	-0.143494	-0.49242	0.278742	-0.674977	0.0447229	-0.128076	0.256898	-0.187133	-0.266183	0.184995	-0.69332	-0.0144971	-0.13041	0.019091	-0.0168744	-0.0368502	2.09979	-0.523217	0.533027	1.7226	1.6671	2.33006	-0.499907	0.965522	1.69096	1.58378
2.55	-0.120008	-0.0652108	0.0609428	-0.0935111	1.09591	-0.633333	0.208557	-0.143607	-0.479808	0.300251	-0.646109	0.0436983	-0.128073	0.264754	-0.190054	-0.248046	0.216554	-0.660665	-0.0240641	-0.130424	0.0135969	-0.0131087	-0.0409668	2.04269	-0.525951	0.496343	1.76615	1.66544	2.29549	-0.535989	0.95268	1.74724	1.5704
2.56	-0.116455	-0.06735	0.0616491	-0.0942165	1.07766	-0.634226	0.215701	-0.144533	-0.462062	0.330124	-0.600365	0.0393283	-0.12807	0.276676	-0.192199	-0.228591	0.257368	-0.606264	-0.0372295	-0.130437	0.0102299	-0.00887403	-0.0446033	1.98414	-0.526843	0.4611	1.80771	1.66316	2.25581	-0.573641	0.936757	1.80344	1.55548
2.57	-0.115094	-0.0689836	0.0617091	-0.0950022	1.05827	-0.635199	0.228209	-0.146201	-0.438619	0.369444	-0.5345	0.0306894	-0.128066	0.293317	-0.193379	-0.208088	0.307598	-0.52796	-0.0539839	-0.130451	0.00944372	-0.00448005	-0.0477219	1.92391	-0.52597	0.427417	1.84749	1.6605	2.20984	-0.61242	0.916956	1.85936	1.53939
2.58	-0.116355	-0.0698491	0.0611519	-0.0959743	1.03806	-0.636147	0.246484	-0.1485	-0.409473	0.418253	-0.447236	0.0172457	-0.128063	0.314932	-0.193364	-0.187138	0.366257	-0.426826	-0.0739427	-0.130464	0.0114898	-0.000403643	-0.050283	1.86137	-0.523419	0.395219	1.88578	1.65794	2.15617	-0.651642	0.892356	1.91474	1.52259
2.59	-0.120414	-0.069561	0.0600241	-0.0972003	1.01768	-0.637069	0.27039	-0.151301	-0.375288	0.475265	-0.34019	-0.00108664	-0.12806	0.34129	-0.191902	-0.166657	0.431147	-0.307495	-0.0963748	-0.130478	0.0164122	0.00273335	-0.052242	1.79558	-0.519265	0.364244	1.923	1.65607	2.09323	-0.690361	0.861976	1.96929	1.50577
